<?xml version="1.0" encoding="UTF-8"?>
<!-- Generated by Pixelmator Pro 4.0 -->
<svg width="800" height="800" viewBox="0 0 800 800" xmlns="http://www.w3.org/2000/svg">
    <g id="Group">
        <path id="Path" fill="#000000" stroke="none" d="M 730.133362 148.666687 C 726.93335 150.400024 715.866638 150.93335 660.266663 151.866638 C 613.333313 152.799988 593.599976 152.666687 591.866638 151.599976 C 590.133362 150.533325 583.333313 151.599976 562.93335 156.266663 C 544.666687 160.266663 535.466675 161.866638 534 161.06665 C 531.200012 159.466675 503.200012 165.733337 498.533325 169.06665 C 496.799988 170.266663 493.600006 171.333313 491.333344 171.466675 C 489.200012 171.599976 486.533325 171.733337 485.733337 171.866638 C 484.799988 172 483.066681 173.466675 481.866669 175.333313 C 480 178.133362 479.866669 179.466675 481.200012 182.133362 L 482.666656 185.466675 L 473.733337 184.666687 C 464.666656 184 447.733337 182.93335 343.333344 176.666687 C 312.533325 174.93335 278.666656 172.666687 268 171.866638 C 256.933319 171.06665 228.800003 170.533325 202 170.799988 L 155.333328 171.333313 L 147.733337 174.93335 C 140.399994 178.400024 132 187.200012 132 191.599976 C 132 192.533325 130.53334 194 128.666672 194.666687 C 126.800003 195.333313 125.333336 196.533325 125.333336 197.200012 C 125.333336 197.866638 120.933334 199.466675 115.73333 200.666687 C 100.666664 204.266663 79.73333 212.93335 69.066666 219.866638 C 51.066666 231.599976 40.799999 244.133362 32.799999 264 C 26.533333 279.466675 25.733334 284.666687 22.533333 338.266663 C 21.066668 364.133331 19.200001 387.466675 18.4 390.266663 C 17.6 393.066681 17.066668 396.533325 17.200001 398 C 17.200001 399.466675 17.6 420.266663 18.133333 444.133331 C 18.933332 483.733337 18.799999 488.266663 16.666666 493.733337 C 14.8 498.533325 14.4 502.666656 14.933333 512 C 15.2 518.799988 16.133333 524.666626 17.066668 525.599976 C 18.133333 526.666626 18.666666 532 18.666666 540.266663 C 18.666666 559.733337 22.266666 564.400024 36.799999 563.866699 C 40.400002 563.733337 46.933334 564.266663 51.333332 565.06665 C 55.733334 566 72.533333 567.06665 88.666664 567.466675 L 118 568.400024 L 121.599998 573.466675 C 126.400002 580.266663 134.933334 586.266663 143.066666 588.666687 C 158 593.06665 169.199997 589.866699 180.933334 577.866699 L 189.199997 569.333313 L 213.600006 569.333313 C 227.066666 569.333313 243.733337 568.666687 250.666672 568 C 267.866669 566.266663 267.600006 566.266663 268.533325 569.733337 C 269.600006 574.400024 278.266663 583.733337 284.533325 587.06665 C 291.466675 590.666687 306.533325 591.06665 312.799988 587.733337 C 318.533325 584.666687 326.266663 576.266663 329.066681 570.400024 L 331.333344 565.466675 L 344.666656 565.333313 L 358 565.333313 L 361.733337 571.06665 C 368.799988 581.466675 379.066681 586.666687 392.666656 586.666687 C 400.933319 586.666687 408.799988 583.200012 415.066681 576.666687 C 419.600006 572 425.333344 561.866699 425.333344 558.400024 C 425.333344 557.06665 428 556.799988 437.066681 557.599976 C 443.466675 558 461.200012 558.533325 476.533325 558.533325 L 504.399994 558.666687 L 508.933319 563.866699 C 514.400024 570.400024 525.466675 576 532.400024 576 C 541.866638 576 548.266663 573.200012 555.733337 565.733337 C 559.466675 562 562.666687 559.333313 562.666687 560 C 562.666687 562.666687 571.599976 571.200012 576.666687 573.466675 C 583.866638 576.799988 596 576.799988 602.533325 573.466675 C 608.133362 570.533325 616.533325 561.866699 618 557.466675 C 618.799988 554.799988 619.733337 554.666687 636 554.666687 L 653.200012 554.666687 L 656 558.666687 C 662.400024 567.599976 678.133362 572.799988 688.666687 569.333313 C 695.333313 567.200012 704.400024 558 707.200012 550.533325 L 709.466675 544.666687 L 729.733337 544.666687 C 747.200012 544.666687 751.333313 544.266663 760 541.599976 C 771.200012 538 777.733337 533.733337 780.666687 527.866699 C 783.466675 522.533325 786.133362 496.133331 784.266663 491.066681 C 783.466675 488.533325 783.200012 469.866669 783.599976 437.866669 C 784.666687 365.466675 781.599976 305.866669 775.733337 284.266663 C 774.266663 278.666687 773.06665 271.599976 773.200012 268.533325 C 773.333313 263.599976 772.666687 262.266663 766.666687 255.866638 C 763.06665 252 760 248.400024 760 247.866638 C 760 246 743.200012 234.133362 735.06665 230.400024 C 730.400024 228.133362 726.666687 226 726.666687 225.599976 C 726.666687 222.400024 740.799988 171.200012 741.866638 170.799988 C 745.733337 169.200012 749.333313 163.733337 749.333313 159.466675 C 749.333313 150 738.799988 144 730.133362 148.666687 Z M 741.06665 154.93335 C 743.06665 156.93335 743.200012 162.133362 741.333313 163.333313 C 737.599976 165.599976 730.400024 158.266663 732.799988 154.533325 C 733.866638 152.799988 739.200012 153.06665 741.06665 154.93335 Z M 588.533325 158.400024 C 590.133362 161.06665 585.866638 162.666687 566 166.533325 C 554.266663 168.93335 543.06665 171.333313 541.06665 172 C 538 172.93335 537.333313 172.799988 537.333313 170.799988 C 537.333313 168.93335 541.466675 167.599976 561.06665 163.06665 C 587.733337 156.93335 587.599976 156.93335 588.533325 158.400024 Z M 730.666687 158.533325 C 730.666687 159.200012 705.06665 160 673.733337 160.533325 C 642.266663 160.93335 610.799988 161.466675 603.733337 161.733337 C 596.533325 161.866638 590.666687 161.599976 590.666687 161.06665 C 590.666687 159.599976 588.400024 159.733337 637.333313 158.799988 C 706.400024 157.333313 730.666687 157.200012 730.666687 158.533325 Z M 735.599976 166.266663 C 735.333313 167.599976 731.466675 181.866638 727.200012 198 C 722.93335 214.133362 719.333313 227.599976 719.06665 227.866638 C 718.799988 228.133362 718.266663 228.133362 717.866638 227.733337 C 716.799988 226.533325 733.599976 164 735.06665 164 C 735.733337 164 736 165.06665 735.599976 166.266663 Z M 719.200012 194.533325 L 711.599976 222.666687 L 706.799988 221.866638 C 704.133362 221.333313 701.733337 220.533325 701.333313 220 C 699.866638 217.733337 683.06665 204.93335 678.666687 202.666687 C 668.799988 197.599976 659.06665 195.866638 630 194 C 613.866638 192.93335 600.133362 192 599.466675 192 C 598.799988 192 599.200012 190.93335 600.266663 189.599976 C 604 185.333313 604.133362 182.666687 600.666687 179.200012 C 598.400024 176.93335 595.866638 176 591.733337 175.866638 C 588.533325 175.733337 579.866638 175.333313 572.400024 174.799988 C 561.200012 174.133362 559.200012 174.266663 560.400024 175.733337 C 561.599976 177.200012 560.93335 177.333313 556.533325 176.533325 C 553.733337 176.133362 551.06665 175.333313 550.666687 175.06665 C 549.200012 173.733337 554.133362 172.400024 559.333313 172.799988 C 562.533325 173.06665 569.733337 172.400024 575.599976 171.06665 C 583.866638 169.333313 600.266663 168.666687 656 167.466675 C 694.533325 166.666687 726.133362 166.133362 726.400024 166.133362 C 726.666687 166.266663 723.333313 179.06665 719.200012 194.533325 Z M 533.466675 168 C 537.333313 170.133362 536.666687 174.400024 532.400024 175.466675 C 526.133362 176.799988 518.133362 178.799988 515.733337 179.466675 C 513.866638 180 513.333313 179.333313 513.333313 176.666687 C 513.333313 173.200012 513.200012 173.06665 507.733337 174 C 497.733337 175.733337 503.733337 172.799988 516.400024 169.866638 C 531.599976 166.266663 530.400024 166.400024 533.466675 168 Z M 271.600006 180.799988 C 274.933319 183.200012 282.399994 195.599976 281.200012 196.533325 C 280.933319 196.666687 268.133331 196 252.666672 195.06665 C 222.800003 193.06665 166.266663 193.599976 147.199997 196 C 141.600006 196.799988 136.666672 197.200012 136.399994 196.93335 C 136.266663 196.666687 137.733337 193.733337 140 190.266663 C 146.933334 179.200012 150.666672 178.133362 184 177.333313 C 199.733337 176.93335 225.066666 176.93335 240.266663 177.333313 C 265.333344 178 268.133331 178.266663 271.600006 180.799988 Z M 512 178.666687 C 512 181.866638 513.466675 182 525.599976 179.200012 C 532.93335 177.466675 536.133362 177.333313 539.866638 178.400024 C 542.533325 179.200012 556 180.533325 569.866638 181.333313 C 583.733337 182.133362 595.733337 183.200012 596.400024 183.599976 C 601.200012 186.533325 578.666687 187.466675 550 185.466675 C 540.533325 184.799988 525.733337 183.733337 517.333313 183.333313 C 508.133331 182.799988 501.600006 181.866638 501.066681 180.93335 C 498.799988 177.333313 500.133331 176 506 176 C 511.066681 176 512 176.400024 512 178.666687 Z M 498.533325 180.133362 C 500.266663 183.06665 500.133331 183.06665 493.866669 182.133362 C 486.799988 181.200012 486 180.799988 487.333344 178.799988 C 488.933319 176.133362 496.533325 177.06665 498.533325 180.133362 Z M 333.333344 182.666687 C 358.666656 184.133362 403.333344 186.799988 432.666656 188.666687 C 462 190.400024 490.533325 191.866638 496 191.866638 C 509.733337 191.866638 575.200012 195.733337 590 197.333313 C 596.666687 198.133362 614.93335 199.599976 630.799988 200.666687 C 662.799988 202.666687 670.133362 204.400024 682.400024 212.93335 C 691.733337 219.333313 692.133362 220.400024 685.200012 219.466675 C 678.666687 218.533325 614.93335 214.799988 534.666687 210.666687 C 430.933319 205.333313 356.133331 201.200012 324.666656 199.333313 C 307.066681 198.266663 290.533325 197.333313 287.866669 197.333313 C 283.333344 197.333313 282.933319 196.93335 282.133331 192.666687 C 281.600006 190 279.333344 185.866638 277.066681 183.333313 L 273.066681 178.666687 L 280.133331 179.333313 C 284.133331 179.733337 308 181.200012 333.333344 182.666687 Z M 490.666656 188 C 490.666656 190 490 189.599976 487.200012 186.533325 C 484.666656 183.599976 484.666656 183.599976 487.733337 185.200012 C 489.333344 186 490.666656 187.333313 490.666656 188 Z M 521.333313 188.133362 C 521.333313 190.666687 520.799988 190.799988 509.733337 190 C 496.399994 189.06665 494.666656 188.666687 494.666656 186.666687 C 494.666656 185.866638 499.733337 185.333313 508 185.333313 C 520.533325 185.333313 521.333313 185.466675 521.333313 188.133362 Z M 544 187.333313 C 568.666687 188.533325 574.666687 189.333313 574.666687 191.733337 C 574.666687 193.466675 572.400024 193.599976 559.06665 192.799988 C 525.466675 190.93335 522.666687 190.533325 522.666687 187.866638 C 522.666687 185.866638 523.333313 185.466675 525.733337 185.866638 C 527.333313 186.266663 535.599976 186.799988 544 187.333313 Z M 592 191.333313 C 592 194.266663 591.466675 194.666687 587.06665 194.666687 C 574.666687 194.666687 571.333313 189.866638 583.06665 188.93335 C 586.799988 188.666687 590.400024 188.400024 591.06665 188.266663 C 591.599976 188.133362 592 189.466675 592 191.333313 Z M 135.600006 200 C 136.133331 201.733337 136 201.733337 134.800003 200 C 134 198.799988 133.333328 198.666687 133.333328 199.599976 C 133.333328 200.400024 132.133331 200.799988 130.53334 200.400024 C 128.399994 199.866638 128.133331 199.333313 129.600006 198.533325 C 132 196.93335 135.066666 197.599976 135.600006 200 Z M 302.533325 204.666687 C 346.266663 207.200012 433.600006 212 496.666656 215.333313 C 638.533325 222.799988 694.533325 226.266663 703.866638 228 C 707.733337 228.666687 713.06665 229.333313 715.466675 229.333313 C 718 229.333313 720 229.866638 720 230.400024 C 720 230.93335 723.06665 232.533325 726.799988 234 C 736.133362 237.333313 752.266663 248.266663 757.466675 254.799988 C 759.733337 257.733337 761.466675 260.266663 761.200012 260.533325 C 760.93335 260.666687 738.133362 259.866638 710.666687 258.533325 C 683.200012 257.200012 618.666687 254.266663 567.333313 252 C 516 249.733337 447.866669 246.666687 416 245.200012 C 321.600006 240.93335 301.733337 240.666687 284.533325 243.200012 C 253.46666 247.733337 228.800003 258 206.133331 275.599976 C 200.133331 280.266663 195.733337 282.666687 193.333328 282.666687 C 189.733337 282.666687 189.733337 282.533325 189.066666 272.799988 C 187.866669 253.733337 180.133331 244.799988 163.066666 242.533325 C 152.133331 241.200012 105.333336 241.200012 78.666664 242.533325 C 59.066666 243.599976 56.933334 244.133362 48 250.400024 L 44.666668 252.666687 L 47.599998 248.666687 C 50 245.200012 64 231.599976 69.73333 227.06665 C 78.666664 220 103.866669 209.866638 121.333336 206.266663 C 130.666672 204.266663 155.333328 201.733337 172 200.799988 C 198.399994 199.599976 232.399994 200.533325 302.533325 204.666687 Z M 696.666687 220 C 697.06665 220.666687 696.799988 221.333313 696 221.333313 C 695.200012 221.333313 694.93335 222 695.466675 222.93335 C 696.266663 224.266663 696.133362 224.266663 694.400024 223.06665 C 693.333313 222.133362 692 221.733337 691.466675 222.266663 C 690.93335 222.799988 690.93335 222.266663 691.466675 220.93335 C 692.400024 218.400024 695.333313 217.866638 696.666687 220 Z M 409.333344 247.333313 C 450.799988 249.200012 525.466675 252.400024 575.333313 254.666687 C 625.200012 256.799988 687.333313 259.599976 713.333313 260.799988 C 739.333313 261.866638 762 263.333313 763.733337 264 C 765.333313 264.666687 766.666687 266.266663 766.666687 267.466675 C 766.666687 269.333313 765.06665 269.466675 753.733337 268.666687 C 746.533325 268.266663 676.133362 265.200012 597.333313 261.866638 C 518.533325 258.666687 426.133331 254.799988 392 253.333313 C 357.866669 251.866638 321.866669 250.666687 311.866669 250.666687 C 275.066681 250.666687 246.933334 259.06665 216.53334 279.333313 C 202.53334 288.666656 195.733337 290.933319 192.399994 287.733337 C 190.666672 285.866638 190.933334 285.599976 194.933334 284.799988 C 197.333328 284.400024 202.53334 281.466675 206.399994 278.266663 C 235.199997 254.666687 277.333344 241.733337 320 243.466675 C 327.733337 243.866638 367.866669 245.599976 409.333344 247.333313 Z M 167.199997 245.333313 C 173.600006 246.799988 178.399994 250.133362 182.266663 256 C 185.333328 260.400024 185.733337 261.866638 187.600006 277.866638 C 188.53334 285.599976 189.199997 287.466675 192.133331 289.600006 C 197.066666 293.333344 202.266663 291.600006 218.666672 280.666687 C 234.266663 270.133362 251.066666 262.533325 268.533325 258 C 289.066681 252.799988 304 251.733337 338.266663 253.333313 C 367.466675 254.666687 487.333344 259.733337 622.666687 265.333313 C 658.266663 266.799988 700 268.533325 715.333313 269.333313 C 730.799988 270 748.266663 270.666687 754.266663 270.666687 L 765.06665 270.666687 L 767.200012 277.06665 C 772.533325 293.066681 775.06665 316.666656 776.93335 370.266663 L 777.733337 394.666656 L 650.666687 394.933319 L 523.599976 395.333344 L 524.266663 350.266663 C 525.06665 295.600006 526.400024 299.733337 507.066681 298.533325 C 499.866669 298 486.799988 297.600006 477.866669 297.466675 C 454 297.333344 456 292.533325 456 349.066681 L 456 395.333344 L 282.266663 395.866669 C 186.800003 396.133331 89.866669 395.866669 66.933334 395.333344 L 25.066668 394.399994 L 26 383.466675 C 26.533333 377.600006 28 356.933319 29.200001 337.600006 C 30.533333 318.399994 32 302.266663 32.533333 301.733337 C 33.733334 300.533325 33.466667 307.200012 31.333334 335.333344 C 27.866667 381.066681 28.666666 388.799988 37.733334 392 C 43.333332 393.866669 177.600006 393.866669 186.666672 391.866669 C 190.399994 391.066681 195.333328 388.799988 197.600006 386.933319 C 204.800003 380.799988 205.333328 378 205.333328 341.333344 L 205.333328 308 L 201.46666 303.733337 L 197.600006 299.333344 L 114.666664 299.333344 L 31.6 299.333344 L 32.400002 290 C 33.066666 280.93335 38.266666 265.466675 43.200001 258 C 46.266666 253.333313 54.933334 247.866638 62.400002 245.866638 C 69.866669 243.866638 158.933334 243.333313 167.199997 245.333313 Z M 87.599998 302.133331 C 65.466667 306.533325 51.333332 318 40.666668 340.266663 C 37.333332 347.066681 33.733334 356 32.666668 360 L 30.666666 367.333344 L 31.333334 359.333344 C 31.733334 354.933319 32.933334 341.066681 34 328.666656 C 35.066666 316.133331 36 304.933319 36 303.733337 C 36 301.600006 38.400002 301.333344 61.066666 300.933319 C 74.800003 300.799988 88.400002 300.533325 91.333336 300.399994 C 95.333336 300.399994 94.400002 300.799988 87.599998 302.133331 Z M 122.666664 302.266663 C 120.400002 306 101.73333 385.066681 102.666664 386.666656 C 103.333336 387.733337 116.133331 388 144.133331 387.733337 C 190.53334 387.333344 191.333328 387.066681 197.066666 376 C 200.133331 370.266663 200.133331 369.066681 199.600006 345.333344 C 198.933334 314.666656 197.600006 310.399994 186.666672 304.533325 C 183.066666 302.799988 177.46666 302 163.333328 301.200012 L 144.666672 300.266663 L 165.333328 300.533325 C 187.46666 300.666656 190.399994 301.466675 196.399994 308.533325 C 202.133331 315.200012 202.800003 319.066681 202.800003 348.133331 C 202.933334 373.066681 202.666672 376.533325 200.399994 380.266663 C 197.066666 386 191.733337 388.933319 181.333328 390.533325 C 170.666672 392.266663 49.466667 392.399994 42.133335 390.666656 C 34.400002 388.933319 31.733334 385.466675 31.200001 377.066681 C 31.066668 373.200012 31.066668 371.466675 31.466667 373.333344 C 34.133335 387.200012 36.400002 388 70.533333 388 C 97.199997 388 97.333336 388 98 384.933319 C 98.400002 383.333344 102.800003 364.933319 108 344.133331 C 113.066666 323.333344 117.333336 305.200012 117.333336 303.866669 C 117.333336 302.666656 116.533333 301.200012 115.73333 300.933319 C 114.800003 300.533325 116.26667 300.133331 119.066666 300.133331 C 123.466667 300 123.866669 300.266663 122.666664 302.266663 Z M 112.666664 302.933319 C 113.333336 302.399994 113.333336 302.799988 112.800003 303.733337 C 112 305.066681 111.333336 305.066681 109.866669 303.866669 C 108.800003 303.066681 108 302 108 301.733337 C 108 301.333344 108.800003 301.733337 109.73333 302.533325 C 110.800003 303.333344 112.133331 303.466675 112.666664 302.933319 Z M 197.600006 302.799988 C 199.066666 303.600006 201.066666 306.266663 202.133331 308.666656 C 204.666672 314.799988 204.399994 317.733337 201.866669 312.666656 C 200.666672 310.399994 197.866669 307.066681 195.600006 304.933319 C 191.46666 301.333344 192.53334 300.133331 197.600006 302.799988 Z M 488 350.666656 L 488 397.333344 L 475.333344 397.333344 L 462.666656 397.333344 L 462.666656 351.600006 C 462.666656 326.399994 463.066681 305.333344 463.600006 304.933319 C 464 304.399994 469.733337 304 476.266663 304 L 488 304 L 488 350.666656 Z M 490.266663 482.933319 C 490.133331 516.133301 490 489.333344 490 423.333344 C 490 357.333344 490.133331 330.133331 490.266663 362.933319 C 490.533325 395.600006 490.533325 449.600006 490.266663 482.933319 Z M 517.200012 306.133331 C 518.666687 306.666656 518.93335 310.133331 518.266663 325.733337 C 517.733337 336.133331 517.333313 356.533325 517.333313 370.933319 L 517.333313 397.333344 L 505.333344 397.333344 L 493.466675 397.333344 L 493.066681 351.200012 C 492.799988 325.866669 492.933319 304.799988 493.200012 304.533325 C 493.866669 303.866669 514.400024 305.200012 517.200012 306.133331 Z M 109.73333 310.266663 C 109.199997 312.399994 105.199997 328.933319 100.666664 347.333344 L 92.533333 380.666656 L 67.866669 381.066681 C 38 381.466675 38 381.466675 38 369.066681 C 38.133335 361.733337 38.933334 358.799988 44.933334 346.399994 C 58.133335 318.799988 74.800003 307.333344 102.400002 306.799988 L 110.666664 306.666656 L 109.73333 310.266663 Z M 183.600006 310.533325 C 186.53334 311.866669 189.600006 314.799988 190.53334 316.933319 C 192.666672 321.600006 195.199997 354.399994 194 363.200012 C 193.066666 371.200012 190.266663 376.666656 186.266663 378.933319 C 184.133331 380.133331 172.933334 380.799988 146.266663 381.333344 C 126 381.733337 109.333336 381.733337 109.333336 381.333344 C 109.333336 380.933319 113.333336 363.866669 118.26667 343.466675 L 127.333336 306.266663 L 152.933334 307.066681 C 174.800003 307.733337 179.199997 308.266663 183.600006 310.533325 Z M 23.200001 398 C 22.666666 399.066681 21.866667 399.733337 21.200001 399.333344 C 20.666666 398.933319 20.4 397.733337 20.799999 396.666656 C 21.333334 395.600006 22.133333 394.933319 22.799999 395.333344 C 23.333334 395.733337 23.6 396.933319 23.200001 398 Z M 780 397.333344 C 780 398 779.733337 398.666656 779.466675 398.666656 C 779.06665 398.666656 778.400024 398 778 397.333344 C 777.599976 396.533325 777.866638 396 778.533325 396 C 779.333313 396 780 396.533325 780 397.333344 Z M 488 471.466675 L 488 542.666626 L 475.333344 542.666626 L 462.666656 542.666626 L 462.666656 470.933319 L 462.666656 399.333344 L 475.333344 399.733337 L 488 400.133331 L 488 471.466675 Z M 517.333313 470.266663 L 517.333313 541.06665 L 506 542 C 499.733337 542.533325 494.266663 542.666626 493.866669 542.400024 C 493.466675 541.866699 492.933319 410.266663 493.333344 399.600006 C 493.333344 399.466675 498.799988 399.333344 505.333344 399.333344 L 517.333313 399.333344 L 517.333313 470.266663 Z M 455.733337 408.799988 C 455.466675 408.933319 358.266663 409.600006 239.733337 410 L 24.266666 410.799988 L 23.733334 406.133331 L 23.200001 401.466675 L 182.666672 401.866669 C 270.266663 402.133331 367.466675 401.866669 398.666656 401.466675 L 455.333344 400.666656 L 455.733337 404.399994 C 456 406.533325 456 408.533325 455.733337 408.799988 Z M 778 404.799988 L 778 408.799988 L 652.799988 409.200012 C 584 409.333344 526.799988 409.866669 525.866638 410.266663 C 524.533325 410.799988 524 409.600006 524 405.866669 L 524 400.666656 L 651.06665 400.666656 L 778 400.666656 L 778 404.799988 Z M 23.066668 414.799988 C 21.866667 416 21.466667 415.733337 21.733334 413.600006 C 21.866667 411.733337 22.4 411.200012 23.200001 412 C 24.133333 412.933319 24 413.866669 23.066668 414.799988 Z M 523.333313 413.333344 C 523.733337 414 523.466675 414.666656 522.799988 414.666656 C 522 414.666656 521.333313 414 521.333313 413.333344 C 521.333313 412.533325 521.599976 412 521.866638 412 C 522.266663 412 522.93335 412.533325 523.333313 413.333344 Z M 455.600006 496.799988 C 455.466675 497.066681 408.799988 498.399994 352 499.866669 C 295.200012 501.333344 243.46666 502.799988 237.199997 502.933319 C 226.399994 503.333344 225.46666 503.066681 223.066666 500.133331 L 220.399994 496.933319 L 132.53334 495.866669 C 84.26667 495.333344 40.266666 494.399994 35.066666 493.866669 L 25.333334 492.933319 L 25.333334 454.799988 L 25.333334 416.666656 L 105.066666 417.066681 C 148.800003 417.200012 245.600006 416.933319 320 416.399994 L 455.333344 415.333344 L 455.733337 455.866669 C 455.866669 478.133331 455.866669 496.533325 455.600006 496.799988 Z M 777.333313 451.333344 L 777.333313 488 L 768.400024 488 C 763.333313 488 745.200012 488.533325 728 489.333344 C 710.799988 490 672.400024 491.200012 642.666687 492 C 612.93335 492.666656 574.133362 493.733337 556.400024 494.133331 L 524 495.066681 L 524 455.600006 L 524 416 L 634.400024 415.600006 C 695.06665 415.466675 752 415.200012 761.06665 414.933319 L 777.333313 414.666656 L 777.333313 451.333344 Z M 24.666666 494.666656 C 25.066668 495.466675 24.533333 495.600006 23.466667 495.200012 C 21.066668 494.266663 20.666666 493.333344 22.533333 493.333344 C 23.333334 493.333344 24.266666 493.866669 24.666666 494.666656 Z M 778.666687 498.133331 C 778.666687 500.666656 778.266663 502.533325 777.733337 502.266663 C 777.06665 501.866669 766.533325 502.133331 754 502.799988 C 732.799988 503.866669 631.733337 506.799988 557.06665 508.666656 L 524 509.466675 L 524 505.466675 L 524 501.333344 L 534.400024 501.333344 C 562 501.333344 767.466675 495.066681 774 494.133331 C 775.466675 493.866669 777.06665 493.600006 777.733337 493.466675 C 778.266663 493.466675 778.666687 495.466675 778.666687 498.133331 Z M 54 501.333344 C 67.199997 502 104.133331 502.666656 136.133331 502.666656 C 168.133331 502.666656 199.733337 503.066681 206.399994 503.466675 L 218.53334 504.399994 L 219.333328 509.600006 C 219.866669 512.533325 220 515.200012 219.600006 515.466675 C 219.199997 515.866699 189.066666 516.133301 152.53334 516.133301 C 93.199997 516.133301 43.200001 514.666626 27.066668 512.533325 L 21.333334 511.866669 L 21.333334 505.066681 L 21.333334 498.266663 L 25.733334 499.200012 C 28 499.733337 40.799999 500.666656 54 501.333344 Z M 458.666656 500 C 458.666656 500.666656 458 501.333344 457.200012 501.333344 C 456.533325 501.333344 456.266663 500.666656 456.666656 500 C 457.066681 499.200012 457.733337 498.666656 458.133331 498.666656 C 458.399994 498.666656 458.666656 499.200012 458.666656 500 Z M 456 508 L 456 512 L 443.733337 512.266663 C 436.933319 512.400024 429.200012 512.533325 426.666656 512.400024 C 424.133331 512.400024 393.866669 513.466675 359.333344 514.93335 C 309.733337 516.799988 226.666672 519.599976 225.866669 519.333374 C 225.733337 519.333374 226 517.200012 226.266663 514.533325 L 226.933334 509.866669 L 325.733337 507.466675 C 380.133331 506.133331 425.333344 504.933319 426 504.666656 C 426.799988 504.399994 433.733337 504.133331 441.733337 504.133331 L 456 504 L 456 508 Z M 777.333313 513.599976 C 777.333313 521.466675 773.733337 528 767.599976 531.466675 C 760.533325 535.333374 744.666687 538.93335 736.799988 538.400024 L 730.266663 538 L 727.866638 530.93335 C 724.799988 521.866699 721.333313 517.06665 715.333313 513.866699 L 710.533325 511.333344 L 740.93335 509.866669 C 757.599976 509.066681 772.666687 508.399994 774.400024 508.266663 C 777.06665 508 777.333313 508.666656 777.333313 513.599976 Z M 661.466675 516.266663 C 657.866638 522.533325 655.733337 534.133301 656.666687 542 L 657.599976 548.666687 L 638 548.266663 L 618.400024 547.866699 L 619.200012 542.266663 C 620.266663 535.333374 616.93335 521.866699 613.333313 517.866699 C 611.866638 516.400024 610.666687 514.93335 610.666687 514.533325 C 610.666687 514.266663 621.866638 513.733337 635.733337 513.466675 C 649.466675 513.333374 660.93335 512.799988 661.200012 512.533325 C 663.333313 510.399994 663.466675 512.799988 661.466675 516.266663 Z M 668.666687 516.666626 C 663.599976 524.266663 662.266663 530 662.93335 541.599976 C 663.333313 549.200012 664.266663 553.06665 666.266663 555.733337 C 667.599976 557.733337 669.333313 560.266663 670 561.333313 C 671.06665 563.06665 670.93335 563.06665 668.533325 561.333313 C 661.333313 555.733337 659.466675 552 658.93335 542.400024 C 658.266663 527.06665 663.333313 512 669.333313 512 C 671.866638 512 671.733337 512.266663 668.666687 516.666626 Z M 703.200012 517.333374 C 709.06665 532.133301 701.866638 555.599976 689.333313 562 C 677.866638 567.866699 667.06665 560 664.666687 543.866699 C 663.333313 535.333374 666 524 670.799988 517.466675 L 674.666687 512 L 687.866638 512 L 701.06665 512 L 703.200012 517.333374 Z M 711.06665 513.466675 C 716.93335 516.533325 722.666687 523.333374 725.333313 530.266663 C 726.799988 534.266663 728 537.733337 728 538.133301 C 728 538.533325 723.599976 538.666626 718.133362 538.533325 L 708.266663 538.133301 L 707.733337 529.333374 C 707.466675 524.533325 706.266663 518.666626 705.06665 516.266663 C 702.93335 512.133301 702.93335 512 705.466675 512 C 706.93335 512 709.466675 512.666626 711.06665 513.466675 Z M 458.666656 514.666626 C 458.666656 515.333374 458 516 457.200012 516 C 456.533325 516 456.266663 515.333374 456.666656 514.666626 C 457.066681 513.866699 457.733337 513.333374 458.133331 513.333374 C 458.399994 513.333374 458.666656 513.866699 458.666656 514.666626 Z M 598.266663 514.266663 C 597.733337 514.666626 595.200012 516.400024 592.533325 518 C 589.200012 520 585.333313 524.799988 580.133362 533.466675 C 574.266663 543.333374 571.466675 546.666687 567.06665 549.06665 C 562.533325 551.599976 561.06665 551.866699 558.93335 550.533325 C 557.06665 549.333313 551.06665 549.333313 533.866638 550.533325 C 510.399994 552 451.866669 552.533325 444.399994 551.200012 C 440.933319 550.533325 439.866669 549.466675 438.533325 545.466675 C 434.933319 534.266663 429.333344 525.333374 423.600006 521.733337 C 420.533325 519.599976 417.066681 517.599976 416 517.06665 C 414.399994 516.400024 414.399994 516.133301 415.866669 516.133301 C 416.933319 516 418.799988 516.93335 420 518 C 421.866669 519.733337 424.933319 519.866699 439.066681 518.93335 L 456 518 L 456 531.466675 C 456 550.799988 454.266663 549.866699 490 549.06665 C 525.866638 548.133301 524 549.200012 524 529.733337 L 524 516 L 536.400024 515.866699 C 549.733337 515.599976 595.866638 514 597.866638 513.599976 C 598.533325 513.466675 598.666687 513.733337 598.266663 514.266663 Z M 71.333336 517.333374 C 90.400002 518.133301 131.333328 518.666626 162.399994 518.400024 C 215.199997 518 218.666672 518.133301 218.666672 520.266663 C 218.666672 522.533325 215.066666 522.666626 161.600006 522.666626 C 127.866669 522.666626 89.333336 521.866699 67.866669 520.666626 C 47.733334 519.599976 29.066668 518.533325 26.4 518.400024 C 23.066668 518.266663 21.333334 517.466675 21.333334 516.266663 C 21.333334 514.666626 22.799999 514.533325 29.066668 515.200012 C 33.200001 515.599976 52.266666 516.666626 71.333336 517.333374 Z M 611.06665 518.533325 C 615.200012 523.466675 617.866638 534.400024 616.93335 542 C 615.733337 550.400024 608 562.799988 601.599976 566.400024 C 595.333313 569.866699 586 570.266663 581.599976 567.200012 C 578.400024 565.06665 574.266663 557.599976 572.93335 551.866699 C 572.266663 549.333313 572.799988 547.733337 574.799988 545.866699 C 576.400024 544.533325 579.599976 539.466675 582 534.666626 C 586.93335 524.93335 591.733337 519.733337 598.666687 516.799988 C 605.333313 513.866699 607.333313 514.133301 611.06665 518.533325 Z M 376.933319 523.733337 C 372 529.200012 368.933319 539.06665 368.933319 549.333313 C 368.933319 560.133301 371.066681 566.666687 376.933319 574.400024 C 379.866669 578.266663 380 578.799988 377.600006 577.466675 C 374.533325 575.866699 364 564.266663 364 562.533325 C 364 561.866699 364.399994 561.333313 365.066681 561.333313 C 365.600006 561.333313 366 555.466675 366 548.400024 C 366 533.599976 369.333344 523.599976 374.933319 521.466675 C 378.933319 520 379.600006 520.799988 376.933319 523.733337 Z M 418 526.93335 C 424.266663 540.400024 421.200012 559.599976 410.933319 570.93335 C 404.799988 577.733337 400.266663 580 392.666656 580 C 384.666656 580 379.733337 576.533325 374.933319 567.599976 C 371.866669 561.599976 371.333344 559.06665 371.333344 549.333313 C 371.333344 540.266663 371.866669 536.799988 374.266663 531.866699 C 380 520.266663 380.666656 520 398.799988 520 L 414.799988 520 L 418 526.93335 Z M 428.399994 529.733337 C 430.133331 532.133301 433.066681 537.733337 434.933319 542.266663 L 438.533325 550.666687 L 431.333344 550.666687 L 424.266663 550.666687 L 423.733337 541.599976 C 423.200012 534 422.133331 530.266663 417.600006 520.799988 C 416.266663 518.133301 425.466675 525.733337 428.399994 529.733337 Z M 23.333334 522.666626 C 23.733334 523.333374 23.200001 524 22.133333 524 C 20.933332 524 20 523.333374 20 522.666626 C 20 521.866699 20.533333 521.333374 21.200001 521.333374 C 22 521.333374 22.933332 521.866699 23.333334 522.666626 Z M 366.933319 528.266663 C 364 534.266663 363.466675 537.200012 363.466675 547.333313 L 363.333344 559.333313 L 346.666656 559.466675 L 330 559.733337 L 330.399994 550.533325 C 330.933319 540.799988 328.133331 529.599976 324.533325 526.666626 C 323.600006 525.733337 322.666656 524.533325 322.666656 524 C 322.666656 523.333374 332.399994 522.799988 344.266663 522.666626 C 356.133331 522.666626 366.133331 522.266663 366.533325 522 C 366.799988 521.599976 367.866669 521.333374 368.666656 521.333374 C 369.733337 521.333374 369.066681 524 366.933319 528.266663 Z M 321.066681 525.733337 C 329.333344 534.533325 331.066681 552.93335 324.666656 564.666687 C 320.133331 573.06665 313.866669 579.733337 308.399994 582.133301 C 295.600006 587.599976 280 580.133301 273.866669 565.599976 C 272 560.93335 272 560.799988 275.733337 556.799988 C 277.866669 554.533325 281.200012 549.599976 283.333344 546 C 290.133331 533.733337 298.533325 526.93335 310.266663 524.133301 C 317.733337 522.400024 318 522.400024 321.066681 525.733337 Z M 299.200012 525.866699 C 293.200012 528.533325 286.133331 536 281.333344 545.200012 C 275.466675 556.133301 272.533325 558.533325 263.200012 560 C 248.53334 562.266663 211.46666 564.133301 200 563.200012 C 183.733337 561.866699 184.266663 562 174 557.333313 C 153.866669 548 126.133331 543.599976 87.333336 543.466675 C 61.466667 543.333374 53.599998 544.799988 45.599998 551.06665 C 37.333332 557.733337 31.333334 559.06665 27.466667 555.200012 C 25.733334 553.599976 25.333334 550.133301 25.333334 539.200012 L 25.333334 525.333374 L 31.066668 525.333374 C 34.133335 525.333374 51.066666 526.266663 68.666664 527.333374 C 114 530.133301 220.399994 530.133301 222.666672 527.333374 C 224 525.733337 229.066666 525.333374 248.53334 524.93335 C 261.733337 524.799988 279.600006 524.533325 288 524.400024 C 301.866669 524.133301 302.933319 524.266663 299.200012 525.866699 Z M 133.333328 548.400024 C 148.933334 550.799988 160.666672 553.866699 169.733337 557.866699 L 176.666672 560.93335 L 155.333328 561.733337 C 134.800003 562.533325 69.199997 560.93335 55.333332 559.333313 C 42.400002 557.733337 41.333332 556.533325 48.799999 552 C 58.666668 545.866699 62.799999 545.333313 92.666664 546 C 108.133331 546.266663 126.400002 547.466675 133.333328 548.400024 Z M 570.666687 552.533325 C 570.666687 553.466675 572.133362 557.06665 574 560.400024 C 576.666687 565.466675 576.799988 566.400024 574.93335 565.200012 C 570.93335 562.666687 565.200012 552.93335 567.06665 551.733337 C 569.466675 550.266663 570.666687 550.400024 570.666687 552.533325 Z M 552.533325 560.133301 C 541.599976 571.733337 525.06665 572 514.93335 560.93335 L 511.733337 557.599976 L 524.266663 557.333313 C 531.06665 557.200012 540.93335 556.666687 546 556.133301 C 551.200012 555.599976 555.599976 555.466675 555.866638 555.599976 C 556.266663 555.866699 554.666687 557.866699 552.533325 560.133301 Z M 183.199997 563.866699 C 184.399994 565.733337 172.266663 578.400024 166.933334 580.93335 C 159.066666 584.799988 146.133331 584.133301 138.399994 579.599976 C 132.800003 576.266663 124 567.466675 124 565.06665 C 124 564.533325 134.933334 563.866699 148.399994 563.599976 C 161.733337 563.466675 174.933334 563.200012 177.600006 562.93335 C 180.266663 562.799988 182.800003 563.200012 183.199997 563.866699 Z"/>
        <path id="path1" fill="#000000" stroke="none" d="M 62.666668 255.733337 C 53.733334 260.133362 49.066666 271.866638 52 282.400024 C 54.266666 291.066681 55.466667 291.200012 113.199997 290.266663 L 163.066666 289.600006 L 167.066666 285.599976 C 174.53334 278.133362 173.333328 259.466675 165.333328 255.333313 C 162.133331 253.733337 153.333328 253.333313 114.400002 253.333313 C 72.26667 253.333313 66.800003 253.599976 62.666668 255.733337 Z M 164 262.533325 C 164.666672 264 165.333328 268.133362 165.333328 271.866638 C 165.333328 277.466675 164.800003 278.93335 161.866669 281.200012 C 158.399994 283.866638 156.800003 284 109.333336 284 C 53.866665 284 56.533333 284.533325 57.733334 273.733337 C 58.266666 268.799988 59.333332 266.533325 62.533333 263.733337 L 66.666664 260 L 114.666664 260 C 160.666672 260 162.666672 260.133362 164 262.533325 Z"/>
        <path id="path2" fill="#000000" stroke="none" d="M 294.799988 265.866638 C 290.666656 268.133362 289.600006 270.93335 289.466675 279.06665 C 289.200012 290.799988 296.266663 294.133331 319.200012 293.200012 C 333.200012 292.533325 334.933319 291.200012 335.733337 280.266663 C 336.266663 273.466675 335.866669 272 332.933319 268.533325 C 329.600006 264.666687 329.466675 264.666687 313.733337 264.266663 C 302.133331 264.133362 297.200012 264.533325 294.799988 265.866638 Z M 327.866669 272.533325 C 328.799988 273.599976 329.333344 277.06665 329.066681 280.266663 L 328.666656 286 L 314.133331 286.400024 C 304.666656 286.666687 299.066681 286.266663 297.866669 285.200012 C 296 283.599976 295.200012 273.200012 296.933319 271.599976 C 297.333344 271.06665 304.266663 270.666687 312 270.666687 C 322.799988 270.666687 326.666656 271.200012 327.866669 272.533325 Z"/>
        <path id="path3" fill="#000000" stroke="none" d="M 352 266.93335 C 345.866669 270.266663 343.733337 278.93335 346.799988 287.733337 C 348.666656 293.333344 353.466675 294.666656 371.333344 294.666656 C 385.200012 294.666656 386.399994 294.399994 389.066681 291.600006 C 391.466675 289.066681 392 286.93335 392 280.533325 C 392 270.133362 389.200012 266.666687 380.799988 266.666687 C 377.600006 266.666687 370.666656 266.400024 365.200012 265.866638 C 358.266663 265.466675 354.399994 265.733337 352 266.93335 Z M 381.333344 273.200012 C 385.200012 274.266663 387.466675 279.466675 386.133331 284.533325 L 385.333344 288 L 370.266663 288 C 360.266663 288 354.666656 287.466675 353.600006 286.400024 C 351.466675 284.266663 351.466675 275.733337 353.600006 273.599976 C 355.333344 271.866638 375.466675 271.599976 381.333344 273.200012 Z"/>
        <path id="path4" fill="#000000" stroke="none" d="M 405.866669 269.06665 C 401.466675 271.866638 399.866669 283.333313 402.799988 289.733337 C 405.066681 294.799988 409.466675 296 425.066681 296 C 435.733337 296 440.133331 295.466675 442.266663 294 C 447.733337 290.133331 447.866669 275.866638 442.533325 270.533325 C 440.266663 268.266663 438.133331 268 423.733337 268 C 414.666656 268 406.666656 268.533325 405.866669 269.06665 Z M 438.399994 275.466675 C 439.600006 275.733337 440 278 439.733337 282.266663 L 439.333344 288.666656 L 424 288.666656 L 408.666656 288.666656 L 408.266663 282.799988 C 407.600006 273.466675 407.466675 273.466675 422.933319 274.133362 C 430.533325 274.533325 437.466675 275.06665 438.399994 275.466675 Z"/>
        <path id="path5" fill="#000000" stroke="none" d="M 537.599976 273.333313 C 531.333313 276 529.866638 289.333344 535.200012 295.600006 C 538.400024 299.333344 538.666687 299.333344 553.333313 299.333344 C 570.93335 299.333344 572 298.666656 572 286.533325 C 572 274.93335 570.266663 273.599976 554 272.799988 C 546.533325 272.400024 539.333313 272.533325 537.599976 273.333313 Z M 563.599976 279.733337 C 565.06665 280.666687 566 287.06665 565.466675 291.600006 C 565.200012 294 542.533325 294 540.266663 291.733337 C 538.533325 290 538 281.06665 539.599976 279.599976 C 540.799988 278.266663 561.599976 278.533325 563.599976 279.733337 Z"/>
        <path id="path6" fill="#000000" stroke="none" d="M 582.133362 277.200012 C 579.466675 280.266663 578.93335 291.466675 581.333313 295.866669 C 583.06665 299.200012 584.93335 299.600006 600.93335 300.666656 C 612.799988 301.466675 613.333313 301.466675 616.666687 298.133331 C 621.06665 293.733337 621.333313 283.466675 617.200012 278.133362 C 614.533325 274.799988 614.133362 274.666687 599.466675 274.666687 C 586.266663 274.666687 584.133362 274.93335 582.133362 277.200012 Z M 612.400024 282.666687 C 613.06665 283.200012 613.333313 286 613.06665 288.799988 L 612.666687 294 L 604.666687 294.399994 C 600.266663 294.533325 594.266663 294.266663 591.333313 293.600006 C 586.533325 292.666656 586 292.133331 585.599976 288.133331 C 584.799988 280.666687 586.93335 279.733337 599.866638 280.666687 C 606.133362 281.200012 611.866638 282.133362 612.400024 282.666687 Z"/>
        <path id="path7" fill="#000000" stroke="none" d="M 629.466675 278.533325 C 627.333313 280.666687 626.666687 283.06665 626.666687 288.666656 C 626.666687 299.333344 629.06665 301.200012 642.400024 301.600006 C 658 302 660 301.733337 662.799988 299.200012 C 666.400024 296 666.400024 284.266663 662.799988 279.866638 C 660.400024 276.93335 659.06665 276.666687 646.266663 276.266663 C 633.466675 275.866638 632 276 629.466675 278.533325 Z M 658.400024 289.866669 L 658.799988 296.399994 L 649.733337 295.600006 C 644.799988 295.066681 639.06665 294.666656 637.06665 294.666656 C 633.06665 294.666656 631.200012 291.200012 632.533325 285.866638 C 633.333313 282.666687 633.599976 282.533325 645.733337 282.93335 L 658 283.333313 L 658.400024 289.866669 Z"/>
        <path id="path8" fill="#000000" stroke="none" d="M 674.799988 279.866638 C 672.666687 282 672 284.400024 672 289.733337 C 672 300.933319 673.333313 301.866669 689.599976 302.666656 C 709.333313 303.733337 710.93335 302.799988 710.93335 289.733337 C 710.93335 279.733337 708.133362 278.133362 691.466675 277.599976 C 678.799988 277.200012 677.333313 277.333313 674.799988 279.866638 Z M 703.866638 285.866638 C 704.799988 286.93335 705.333313 289.866669 705.06665 292.266663 C 704.533325 297.466675 702.666687 298 688.533325 296.666656 C 679.599976 295.866669 678.93335 295.600006 678.266663 292.399994 C 676.799988 284.799988 677.866638 284 690.666687 284 C 699.200012 284 702.799988 284.533325 703.866638 285.866638 Z"/>
        <path id="path9" fill="#000000" stroke="none" d="M 722.666687 279.466675 C 719.06665 280.93335 717.333313 284.400024 717.333313 290.399994 C 717.333313 296.133331 719.06665 301.200012 721.866638 302.933319 C 722.666687 303.466675 729.733337 304 737.599976 304 C 751.466675 304 752 303.866669 754.133362 300.666656 C 755.733337 298.266663 756.133362 295.466675 755.733337 290.533325 C 754.666687 280.533325 752.93335 279.333313 737.599976 279.06665 C 730.533325 278.93335 723.733337 279.06665 722.666687 279.466675 Z M 749.06665 291.733337 L 749.466675 297.466675 L 737.06665 297.066681 L 724.666687 296.666656 L 724.266663 290.933319 L 723.866638 285.200012 L 736.266663 285.599976 L 748.666687 286 L 749.06665 291.733337 Z"/>
        <path id="path10" fill="#000000" stroke="none" d="M 217.866669 301.333344 C 211.066666 304 210.666672 306.133331 210.666672 341.066681 C 210.666672 385.333344 210.800003 385.466675 235.199997 386.399994 C 252.133331 387.066681 258.399994 385.600006 263.200012 379.866669 L 266.666656 375.733337 L 266.666656 343.200012 C 266.666656 307.733337 266.133331 304.666656 259.333344 301.600006 C 255.333328 299.733337 222.266663 299.466675 217.866669 301.333344 Z M 242.933334 306.666656 C 252.800003 306.666656 256.266663 307.200012 257.866669 308.799988 C 260.799988 311.733337 261.066681 372.666656 258.133331 376.799988 C 256.399994 379.066681 254.266663 379.333344 239.733337 379.733337 C 215.733337 380.399994 217.199997 382.933319 217.600006 341.600006 L 218 308.799988 L 221.333328 307.066681 C 223.199997 306.133331 225.866669 305.600006 227.333328 306 C 228.800003 306.266663 235.866669 306.666656 242.933334 306.666656 Z"/>
        <path id="path11" fill="#000000" stroke="none" d="M 288.666656 319.200012 L 285.333344 322.533325 L 285.333344 351.066681 C 285.333344 388.133331 283.866669 385.866669 308 386.399994 C 327.333344 386.933319 332 385.866669 334.533325 380.533325 C 335.466675 378.399994 336 367.600006 336 350.666656 C 336 324.533325 336 324.133331 332.799988 320.399994 C 329.600006 316.666656 329.466675 316.666656 310.799988 316.266663 C 292.266663 315.866669 292 315.866669 288.666656 319.200012 Z M 327.866669 324.533325 C 328.933319 325.733337 329.333344 334.399994 329.066681 352.799988 L 328.666656 379.333344 L 311.333344 379.733337 C 296.666656 380 293.733337 379.733337 292.399994 377.866669 C 291.333344 376.399994 291.066681 368.933319 291.600006 350.933319 C 291.866669 337.200012 292.399994 325.200012 292.666656 324.266663 C 293.466675 321.866669 325.733337 322 327.866669 324.533325 Z"/>
        <path id="path12" fill="#000000" stroke="none" d="M 345.333344 320.266663 C 342.799988 323.066681 342.666656 324.799988 342.666656 352 C 342.666656 388.933319 341.066681 386.666656 367.600006 386.666656 C 393.466675 386.666656 392 388.666656 392 351.733337 C 392 324 392 323.866669 388.666656 320.666656 C 385.600006 317.466675 384.799988 317.333344 366.799988 317.333344 C 349.333344 317.333344 347.866669 317.466675 345.333344 320.266663 Z M 383.733337 324.799988 C 384.933319 325.066681 385.333344 331.866669 385.333344 352.666656 L 385.333344 380 L 367.333344 380 L 349.333344 380 L 349.333344 352.133331 C 349.333344 331.066681 349.733337 324 351.066681 323.600006 C 352.799988 322.799988 380.799988 323.866669 383.733337 324.799988 Z"/>
        <path id="path13" fill="#000000" stroke="none" d="M 404.533325 319.200012 C 402.133331 320.266663 400 322.399994 399.600006 324.133331 C 399.066681 325.866669 398.666656 339.466675 398.666656 354.266663 C 398.666656 388.933319 397.066681 386.666656 422.399994 386.666656 C 436.133331 386.666656 441.466675 386.133331 443.466675 384.799988 C 445.866669 383.066681 446 380.799988 446.399994 355.200012 C 446.933319 324.533325 446.266663 321.066681 439.733337 318.799988 C 433.866669 316.666656 409.600006 317.066681 404.533325 319.200012 Z M 439.733337 351.866669 C 440 372.799988 439.600006 379.333344 438.399994 380.266663 C 436.399994 381.466675 410.533325 381.733337 407.466675 380.533325 C 405.600006 379.866669 405.333344 376.133331 405.333344 352.799988 C 405.333344 337.866669 405.733337 325.333344 406.266663 324.799988 C 406.799988 324.399994 414.399994 324.133331 423.200012 324.266663 L 439.333344 324.666656 L 439.733337 351.866669 Z"/>
        <path id="path14" fill="#000000" stroke="none" d="M 535.06665 321.066681 C 531.599976 323.200012 530.666687 330.266663 530.666687 354.133331 C 530.666687 378.133331 531.333313 383.066681 535.200012 385.600006 C 536 386.133331 544 386.666656 552.93335 386.666656 C 570.266663 386.666656 572.400024 385.866669 574.133362 379.466675 C 574.533325 377.866669 574.666687 365.066681 574.400024 351.066681 C 573.866638 318.399994 575.06665 320 552.799988 320 C 543.866638 320 536 320.533325 535.06665 321.066681 Z M 566.400024 327.466675 C 567.599976 327.733337 568 334.266663 568 354 L 568 380 L 552.666687 380 L 537.333313 380 L 537.333313 354.266663 C 537.333313 336.266663 537.866638 328 538.93335 326.933319 C 540.400024 325.466675 561.333313 325.866669 566.400024 327.466675 Z"/>
        <path id="path15" fill="#000000" stroke="none" d="M 582.799988 322.533325 C 580.133362 325.200012 580 326.666656 580 353.866669 C 580 378.133331 580.266663 382.799988 582.133362 384.533325 C 583.733337 386.266663 587.466675 386.666656 600.133362 386.666656 C 622.533325 386.666656 621.333313 388.533325 621.333313 354.133331 C 621.333313 319.200012 622.266663 320.799988 600.93335 320.266663 C 586.799988 319.866669 585.333313 320 582.799988 322.533325 Z M 614.400024 353.733337 L 614.666687 380.133331 L 600.400024 379.733337 L 586 379.333344 L 585.866638 354 C 585.866638 340 586 328.133331 586.400024 327.600006 C 586.666687 327.066681 592.93335 326.799988 600.400024 326.933319 L 614 327.333344 L 614.400024 353.733337 Z"/>
        <path id="path16" fill="#000000" stroke="none" d="M 628.799988 324.266663 C 627.06665 326.799988 626.666687 332 626.666687 354 C 626.666687 388.666656 625.333313 386.666656 647.333313 386.666656 C 669.200012 386.666656 668 388.666656 668 354.533325 C 668 320.133331 668.799988 321.333344 646.666687 321.333344 C 631.866638 321.333344 630.666687 321.466675 628.799988 324.266663 Z M 661.333313 354 L 661.333313 380 L 647.333313 380 L 633.333313 380 L 633.333313 354 L 633.333313 328 L 647.333313 328 L 661.333313 328 L 661.333313 354 Z"/>
        <path id="path17" fill="#000000" stroke="none" d="M 675.599976 325.066681 C 673.599976 327.200012 673.333313 331.333344 673.333313 354.399994 C 673.333313 388.266663 672.400024 386.666656 693.06665 386.666656 C 700.93335 386.666656 708 386.133331 708.799988 385.600006 C 712.666687 383.066681 713.333313 378.133331 713.333313 354.666656 C 713.333313 331.200012 712.666687 326.266663 708.799988 323.733337 C 708 323.200012 700.666687 322.666656 692.533325 322.666656 C 679.866638 322.666656 677.466675 323.066681 675.599976 325.066681 Z M 702.133362 329.333344 L 706.666687 329.333344 L 706.666687 354.666656 L 706.666687 380 L 693.333313 380 C 681.599976 380 680 379.733337 680 377.600006 C 679.599976 364.266663 680.266663 330 680.93335 328.933319 C 681.333313 328.133331 685.06665 328 689.733337 328.533325 C 694.133362 328.933319 699.733337 329.333344 702.133362 329.333344 Z"/>
        <path id="path18" fill="#000000" stroke="none" d="M 721.200012 325.200012 C 718 327.733337 718 328 718 354.666656 C 718 389.200012 715.733337 386.666656 746.799988 386.666656 C 775.599976 386.666656 775.200012 386.933319 774.666687 368 C 774.266663 353.466675 768.93335 336.933319 762.133362 329.600006 C 756.93335 323.866669 752.93335 322.666656 738.266663 322.666656 C 726.533325 322.666656 723.733337 323.066681 721.200012 325.200012 Z M 755.733337 332.666656 C 761.466675 337.466675 766.666687 350.133331 768.266663 363.733337 C 769.200012 370.266663 769.466675 376.533325 768.93335 377.733337 C 768.133362 379.866669 765.866638 380 746.400024 379.733337 L 724.666687 379.333344 L 724.266663 356 C 724.133362 343.200012 724.266663 332 724.533325 331.066681 C 725.06665 329.866669 728.93335 329.333344 738.533325 329.333344 C 750.666687 329.333344 752.133362 329.600006 755.733337 332.666656 Z"/>
        <path id="path19" fill="#000000" stroke="none" d="M 468.799988 321.600006 C 467.066681 324.133331 466.666656 329.333344 466.666656 351.600006 C 466.666656 366.399994 467.200012 380 468 381.866669 C 469.600006 386.266663 476.533325 386.799988 478.666656 382.799988 C 479.466675 381.200012 480 368.666656 480 351.466675 C 480 327.200012 479.733337 322.533325 477.866669 320.799988 C 474.933319 317.866669 471.200012 318.133331 468.799988 321.600006 Z M 477.066681 351.466675 C 477.333344 376.533325 477.066681 381.200012 475.333344 382.666656 C 473.733337 384 472.933319 384 471.333344 382.666656 C 469.733337 381.333344 469.333344 376.133331 469.333344 352 C 469.333344 336.133331 469.733337 322.666656 470.266663 322.133331 C 470.799988 321.600006 472.399994 321.333344 474 321.600006 C 476.533325 322 476.666656 322.933319 477.066681 351.466675 Z"/>
        <path id="path20" fill="#000000" stroke="none" d="M 500.266663 321.600006 C 499.066681 322.799988 498.666656 331.733337 498.666656 353.600006 C 498.666656 382.133331 498.799988 384 501.200012 385.333344 C 504.799988 387.200012 506.133331 387.066681 508.533325 384.533325 C 510.399994 382.799988 510.666656 378 510.666656 352.799988 C 510.666656 321.733337 510.399994 320 504.666656 320 C 503.066681 320 501.200012 320.666656 500.266663 321.600006 Z M 505.866669 322.133331 C 507.733337 322.799988 508 326.799988 508 352.799988 C 508 379.333344 507.733337 382.799988 505.866669 383.600006 C 504.533325 384.133331 502.933319 383.600006 502 382.266663 C 499.866669 379.333344 499.200012 327.866669 501.333344 324.133331 C 502.933319 321.066681 502.933319 321.066681 505.866669 322.133331 Z"/>
        <path id="path21" fill="#000000" stroke="none" d="M 469.200012 415.466675 C 467.066681 418.133331 467.333344 459.600006 469.600006 462.266663 C 471.333344 464.399994 476.266663 464.533325 478.399994 462.399994 C 479.466675 461.333344 480 454.266663 480 439.200012 C 480 421.333344 479.600006 417.200012 477.866669 415.466675 C 475.200012 412.799988 471.466675 412.799988 469.200012 415.466675 Z M 477.066681 438.799988 C 477.333344 458.399994 477.200012 461.066681 475.200012 461.866669 C 470.266663 463.733337 469.333344 460.533325 469.333344 440 C 469.333344 429.066681 469.733337 419.200012 470.133331 418 C 470.666656 416.799988 472.133331 416 473.866669 416.266663 C 476.533325 416.666656 476.666656 417.333344 477.066681 438.799988 Z"/>
        <path id="path22" fill="#000000" stroke="none" d="M 469.866669 477.866669 C 467.466675 479.600006 467.333344 481.600006 467.333344 503.333344 C 467.333344 525.06665 467.466675 527.06665 469.866669 528.799988 C 473.200012 531.200012 475.333344 531.200012 477.866669 528.533325 C 479.600006 526.799988 480 522.533325 480 503.333344 C 480 484.133331 479.600006 479.866669 477.866669 478.133331 C 475.333344 475.466675 473.200012 475.466675 469.866669 477.866669 Z M 477.066681 503.066681 C 477.333344 523.333374 477.066681 526.799988 475.333344 527.466675 C 474.266663 528 472.399994 527.599976 471.333344 526.666626 C 469.733337 525.333374 469.333344 520.93335 469.333344 503.466675 C 469.333344 481.333344 470 478.133331 474.666656 478.933319 C 476.399994 479.333344 476.666656 483.066681 477.066681 503.066681 Z"/>
        <path id="path23" fill="#000000" stroke="none" d="M 500.933319 415.733337 C 497.733337 419.333344 497.600006 460 500.799988 463.200012 C 503.200012 465.733337 504.533325 465.866669 508.133331 464 C 510.533325 462.666656 510.666656 460.933319 510.666656 439.333344 C 510.666656 417.733337 510.533325 416 508.133331 414.666656 C 504.533325 412.799988 503.466675 412.933319 500.933319 415.733337 Z M 507.733337 417.600006 C 510.266663 420.133331 510 459.200012 507.333344 461.333344 C 506.266663 462.266663 504.399994 462.666656 503.333344 462.133331 C 501.600006 461.600006 501.333344 457.866669 501.333344 439.600006 C 501.333344 427.600006 501.733337 417.333344 502.266663 416.933319 C 503.600006 415.466675 506 415.866669 507.733337 417.600006 Z"/>
        <path id="path24" fill="#000000" stroke="none" d="M 500 479.866669 C 499.333344 481.333344 498.666656 491.333344 498.666656 502.666656 C 498.666656 514 499.333344 524 500 525.466675 C 501.600006 528.266663 506.666656 528.799988 509.066681 526.400024 C 510.133331 525.333374 510.666656 518.133301 510.666656 502.666656 C 510.666656 487.200012 510.133331 480 509.066681 478.933319 C 506.666656 476.533325 501.600006 477.066681 500 479.866669 Z M 507.200012 480.799988 C 510.266663 483.733337 510.399994 522.799988 507.333344 525.333374 C 505.733337 526.666626 504.933319 526.666626 503.333344 525.333374 C 501.733337 524 501.333344 519.733337 501.333344 502.799988 C 501.333344 488.266663 501.866669 481.333344 502.933319 480.266663 C 504.933319 478.266663 504.666656 478.266663 507.200012 480.799988 Z"/>
        <path id="path25" fill="#000000" stroke="none" d="M 81.333336 433.600006 C 77.866669 435.466675 73.73333 439.066681 71.333336 442.399994 C 67.866669 447.466675 67.333336 449.600006 66.933334 458.399994 C 66.533333 467.733337 66.933334 469.333344 70.533333 475.466675 C 80.133331 492 103.066666 491.866669 113.333336 475.333344 C 117.066666 469.333344 118.400002 455.866669 116 448.799988 C 114.26667 443.600006 107.333336 434.666656 105.066666 434.666656 C 104.26667 434.666656 105.866669 437.066681 108.400002 439.866669 C 118.133331 450.666656 117.599998 468.933319 107.199997 479.333344 C 104.666664 481.866669 101.866669 484 100.933334 484 C 100.133331 484 100.666664 483.066681 102.26667 482 C 113.199997 474.399994 115.599998 453.466675 107.066666 440.666656 C 105.066666 437.733337 103.333336 434.799988 103.333336 434 C 103.333336 433.333344 101.866669 432.399994 100 431.866669 C 93.599998 430.133331 87.199997 430.666656 81.333336 433.600006 Z M 99.73333 436 C 106.400002 440.133331 111.199997 451.466675 110.26667 460.933319 C 107.866669 483.600006 86.400002 493.200012 74.133331 477.066681 C 58.400002 456.133331 78.933334 423.333344 99.73333 436 Z"/>
        <path id="path26" fill="#000000" stroke="none" d="M 81.73333 441.333344 C 70.933334 447.866669 69.333336 465.600006 78.666664 474.933319 C 81.73333 478 83.599998 478.666656 88.666664 478.666656 C 96.533333 478.666656 101.599998 475.200012 104.533333 468 C 108.533333 458 106.400002 448.799988 98.800003 442.266663 C 93.599998 438 87.73333 437.600006 81.73333 441.333344 Z M 97.599998 444 C 105.333336 450 106.26667 464.799988 99.333336 472 C 92.26667 479.333344 83.599998 478.266663 77.73333 469.466675 C 67.866669 454.799988 84.400002 433.600006 97.599998 444 Z"/>
        <path id="path27" fill="#000000" stroke="none" d="M 682.666687 518.93335 C 670.133362 525.599976 670.400024 549.466675 683.06665 553.866699 C 691.333313 556.799988 701.200012 546.533325 701.333313 534.93335 C 701.333313 529.866699 698.666687 522.666626 695.733337 520.400024 C 692.666687 517.733337 686.266663 517.06665 682.666687 518.93335 Z M 692.666687 520.799988 C 697.733337 522.799988 700.533325 536.400024 697.200012 543.06665 C 690.799988 555.599976 679.599976 554.799988 676.133362 541.733337 C 672.666687 528.93335 682.266663 516.799988 692.666687 520.799988 Z"/>
        <path id="path28" fill="#000000" stroke="none" d="M 590 525.599976 C 585.599976 529.06665 581.466675 537.733337 581.333313 543.733337 C 581.333313 556.400024 593.599976 564.533325 603.333313 558.133301 C 607.599976 555.333313 611.866638 546.400024 612 540.266663 C 612 534.666626 608.533325 527.200012 604.799988 524.666626 C 600.799988 521.866699 594.266663 522.266663 590 525.599976 Z M 605.866638 529.466675 C 614.133362 539.200012 606.666687 558.666687 594.666687 558.666687 C 593.06665 558.666687 590 556.93335 587.866638 554.799988 C 584.666687 551.466675 584 549.866699 584 544 C 584 532.666626 589.599976 525.333374 598.133362 525.333374 C 601.333313 525.333374 603.333313 526.400024 605.866638 529.466675 Z"/>
        <path id="path29" fill="#000000" stroke="none" d="M 391.733337 527.599976 C 380.133331 534.799988 378.399994 556.133301 388.799988 565.333313 C 400.266663 575.333313 414.799988 565.200012 415.066681 546.93335 C 415.200012 530.533325 403.066681 520.533325 391.733337 527.599976 Z M 405.600006 529.466675 C 409.066681 531.333374 413.333344 540.799988 413.333344 546.666687 C 413.333344 552.266663 409.466675 561.06665 405.600006 564.533325 C 401.066681 568.533325 393.466675 567.733337 389.066681 562.799988 C 376.266663 548.533325 389.866669 521.06665 405.600006 529.466675 Z"/>
        <path id="path30" fill="#000000" stroke="none" d="M 299.333344 532.533325 C 290.933319 536.400024 286.666656 543.866699 286.666656 554.799988 C 286.666656 566.266663 292.933319 573.733337 302.666656 573.733337 C 312.799988 573.733337 320.133331 565.599976 321.066681 553.333313 C 322.266663 537.599976 311.200012 527.06665 299.333344 532.533325 Z M 313.333344 536.93335 C 323.733337 546.266663 319.600006 566.93335 306.799988 570.799988 C 296.933319 573.733337 288.666656 566.133301 288.799988 554.266663 C 288.933319 545.866699 292 539.466675 297.733337 536 C 303.600006 532.266663 308.533325 532.666626 313.333344 536.93335 Z"/>
    </g>
</svg>
